<svg width="173" height="47" viewBox="0 0 173 47" fill="none" xmlns="http://www.w3.org/2000/svg">
<path d="M30.0158 6.52323H14.0788C13.1524 6.52323 11.7239 6.47096 11.0906 6.52323C10.4314 6.5755 10.681 7.22286 10.0946 7.52255C8.67197 8.24913 7.3944 9.31476 7.10641 10.5205C6.86873 11.5067 7.10294 12.6507 7.10641 13.5184V13.5184V37.5021C7.10641 38.1952 7.61443 39.0105 8.10247 39.5007C8.59051 39.9908 9.4044 40.5 10.0946 40.5H28.0236C29.0941 40.5 30.186 40.3057 31.0118 39.5007C31.8515 38.687 32.0079 37.6614 32.0079 36.5027V34.5041C32.4678 34.2733 32.7257 33.9389 33.0039 33.5048C33.4862 32.7521 34 32.4523 34 31.5062V10.5205C34 9.44718 33.8037 8.35367 33.0039 7.52255C32.1937 6.67923 31.1729 6.52323 30.0158 6.52323ZM28.0236 37.5021H10.0946C10.0946 36.8089 9.60655 36.9929 10.0946 36.5027C10.5826 36.0126 11.3965 35.5034 12.0867 35.5034H30.0158V36.5027C30.0158 37.4959 29.0613 37.4602 29.0197 37.5021C28.9659 37.5543 28.9726 37.5021 28.0236 37.5021ZM16.0709 18.515H25.0355C25.3806 18.515 25.7875 19.2693 26.0315 19.5143C26.2755 19.7594 26.0315 20.1671 26.0315 20.5137C26.0315 20.8603 26.2755 20.2686 26.0315 20.5137C25.7875 20.7587 25.3806 21.513 25.0355 21.513H16.0709C15.7258 21.513 15.3189 20.7587 15.0749 20.5137C14.8309 20.2686 15.0749 20.8603 15.0749 20.5137C15.0749 20.1671 14.8309 19.7594 15.0749 19.5143C15.3189 19.2693 15.7258 18.515 16.0709 18.515Z" fill="#FFEB00"/>
<path d="M55.5 23.5C55.5 16.9396 59.3365 11.5 66.5 11.5C73.5667 11.5 77.2096 16.6429 77.5 20.5H72.5C72.2096 18.2253 70.3722 15.5 66.5 15.5C62.1116 15.5 59.5 19.1154 59.5 23.5C59.5 27.8846 62.1116 31.5 66.5 31.5C70.3722 31.5 72.2096 28.7747 72.5 26.5H77.5C77.2096 30.3571 73.5667 35.5 66.5 35.5C59.3365 35.5 55.5 30.0604 55.5 23.5Z" fill="#FBFBFB"/>
<path d="M78.5 30.5C78.5 26.6429 81.0796 24.6978 84.5 24.5C87.5332 24.3352 90.5323 25.1154 90.5 23.5C90.4677 22.3132 90.4364 20.5 87.5 20.5C84.5959 20.5 83.7259 22.0824 83.5 23.5H79.5C80.0808 19.1154 83.6924 17.5 87.5 17.5C91.4044 17.5 94.5 18.7747 94.5 25.5V35.5H90.5V34.5C90.5 33.7088 91.2096 33.0934 91.5 32.5C91.6291 32.2033 91.7904 31.6319 91.5 31.5C91.1773 31.3681 90.5645 31.3352 90.5 31.5C89.532 33.9066 87.5332 35.5 84.5 35.5C81.3055 35.5 78.5 33.4341 78.5 30.5ZM90.5 26.5C89.532 27.5879 87.9524 27.2363 85.5 27.5C83.7253 27.6978 82.5 28.9505 82.5 30.5C82.5 31.9505 84.5962 32.7637 86.5 32.5C88.6942 32.2033 90.4677 30.8187 90.5 26.5Z" fill="#FBFBFB"/>
<path d="M102.5 21.5C103.533 19.0934 104.337 17.5 108.5 17.5V21.5C103.692 21.1703 101.5 23.0824 101.5 27.5V35.5H97.5V17.5H101.5V18.5C101.5 19.2582 101.79 19.9066 101.5 20.5C101.371 20.7967 101.113 21.4341 101.5 21.5C101.694 21.533 102.468 21.5989 102.5 21.5Z" fill="#FBFBFB"/>
<path d="M110.5 15.5V11.5H114.5V15.5H110.5ZM110.5 17.5H114.5V35.5H110.5V17.5Z" fill="#FBFBFB"/>
<path d="M138.5 35.5H134.5L132.5 29.5H122.5L121.5 35.5H116.5L124.5 12.5H130.5L138.5 35.5ZM126.5 18.5L124.5 26.5H131.5L128.5 18.5C128.21 17.5769 127.532 16.6538 127.5 15.5C127.5 15.3022 127.823 14.5 127.5 14.5C127.177 14.5 127.5 15.3022 127.5 15.5C127.468 16.6538 126.79 17.5769 126.5 18.5Z" fill="#FBFBFB"/>
<path d="M150.5 27.5V12.5H154.5V27.5C154.5 32.7088 151.34 35.5 146.5 35.5C141.595 35.5 139.5 32.7088 139.5 27.5H143.5C143.5 30.6978 144.822 31.5 146.5 31.5C147.823 31.5 150.5 30.6648 150.5 27.5Z" fill="#FBFBFB"/>
<path d="M156.5 30.5C156.5 26.6429 159.08 24.6978 162.5 24.5C165.533 24.3352 168.532 25.1154 168.5 23.5C168.468 22.3132 167.436 20.5 164.5 20.5C161.596 20.5 161.726 22.0824 161.5 23.5H157.5C158.081 19.1154 161.692 17.5 165.5 17.5C169.404 17.5 172.5 18.7747 172.5 25.5V35.5H168.5V34.5C168.5 33.7088 168.21 33.0934 168.5 32.5C168.629 32.2033 168.79 31.6319 168.5 31.5C168.177 31.3681 168.565 31.3352 168.5 31.5C167.532 33.9066 165.533 35.5 162.5 35.5C159.305 35.5 156.5 33.4341 156.5 30.5ZM168.5 26.5C167.532 27.5879 165.952 27.2363 163.5 27.5C161.725 27.6978 160.5 28.9505 160.5 30.5C160.5 31.9505 161.596 32.7637 163.5 32.5C165.694 32.2033 168.468 30.8187 168.5 26.5Z" fill="#FBFBFB"/>
</svg>
